<svg width="1600" height="1000" viewBox="0 0 1600 1000" fill="none" xmlns="http://www.w3.org/2000/svg">
  <rect width="1600" height="1000" fill="#1E2A38"/>
  <rect x="72" y="72" width="1456" height="856" rx="28" fill="#223142"/>
  <rect x="120" y="118" width="1360" height="764" rx="22" fill="#F7F6F3"/>
  <rect x="120" y="118" width="1360" height="248" rx="22" fill="#1E2A38"/>
  <circle cx="1328" cy="244" r="124" fill="#D69E2E" fill-opacity="0.28"/>
  <circle cx="1186" cy="184" r="72" fill="#C05621" fill-opacity="0.58"/>
  <rect x="188" y="198" width="370" height="18" rx="9" fill="#D69E2E"/>
  <rect x="188" y="242" width="596" height="58" rx="12" fill="#F7F6F3"/>
  <rect x="188" y="326" width="438" height="18" rx="9" fill="#AFC0D1"/>
  <rect x="188" y="434" width="402" height="298" rx="20" fill="#EFE8DB"/>
  <rect x="622" y="434" width="402" height="298" rx="20" fill="#F2EEE6"/>
  <rect x="1056" y="434" width="236" height="298" rx="20" fill="#1E2A38"/>
  <rect x="1088" y="474" width="136" height="14" rx="7" fill="#D69E2E"/>
  <rect x="1088" y="518" width="164" height="16" rx="8" fill="#F7F6F3"/>
  <rect x="1088" y="560" width="136" height="16" rx="8" fill="#F7F6F3"/>
  <rect x="1088" y="620" width="172" height="10" rx="5" fill="#AFC0D1"/>
  <rect x="1088" y="650" width="148" height="10" rx="5" fill="#AFC0D1"/>
  <rect x="1088" y="680" width="124" height="10" rx="5" fill="#AFC0D1"/>
  <rect x="188" y="780" width="1104" height="44" rx="22" fill="#1E2A38"/>
  <rect x="216" y="797" width="236" height="10" rx="5" fill="#D69E2E"/>
  <rect x="1216" y="790" width="44" height="24" rx="12" fill="#C05621"/>
  <rect x="264" y="488" width="246" height="150" rx="18" fill="#1E2A38"/>
  <rect x="696" y="488" width="246" height="150" rx="18" fill="#C05621"/>
  <rect x="304" y="658" width="168" height="12" rx="6" fill="#6B7280"/>
  <rect x="736" y="658" width="168" height="12" rx="6" fill="#6B7280"/>
</svg>
