<svg width="1600" height="800" viewBox="0 0 1600 800" fill="none" xmlns="http://www.w3.org/2000/svg">
  <rect width="1600" height="800" fill="#F7F6F3"/>
  <rect x="80" y="80" width="1440" height="640" rx="28" fill="#1E2A38"/>
  <rect x="124" y="126" width="520" height="548" rx="20" fill="#223142"/>
  <rect x="694" y="126" width="250" height="548" rx="20" fill="#C05621"/>
  <rect x="980" y="126" width="494" height="548" rx="20" fill="#F7F6F3"/>
  <rect x="170" y="190" width="164" height="16" rx="8" fill="#D69E2E"/>
  <rect x="170" y="238" width="334" height="34" rx="12" fill="#F7F6F3"/>
  <rect x="170" y="294" width="280" height="14" rx="7" fill="#AFC0D1"/>
  <rect x="170" y="386" width="424" height="1" fill="#445569"/>
  <rect x="170" y="450" width="424" height="1" fill="#445569"/>
  <rect x="170" y="514" width="424" height="1" fill="#445569"/>
  <rect x="170" y="578" width="424" height="1" fill="#445569"/>
  <circle cx="819" cy="254" r="74" fill="#F7F6F3" fill-opacity="0.2"/>
  <circle cx="819" cy="400" r="74" fill="#F7F6F3" fill-opacity="0.2"/>
  <circle cx="819" cy="546" r="74" fill="#F7F6F3" fill-opacity="0.2"/>
  <rect x="1070" y="196" width="140" height="18" rx="9" fill="#D69E2E"/>
  <rect x="1070" y="246" width="258" height="40" rx="12" fill="#1E2A38"/>
  <rect x="1070" y="332" width="322" height="14" rx="7" fill="#6B7280"/>
  <rect x="1070" y="368" width="290" height="14" rx="7" fill="#6B7280"/>
  <rect x="1070" y="438" width="340" height="110" rx="18" fill="#EFE8DB"/>
  <rect x="1100" y="470" width="120" height="10" rx="5" fill="#C05621"/>
  <rect x="1100" y="500" width="208" height="10" rx="5" fill="#6B7280"/>
  <rect x="1100" y="530" width="180" height="10" rx="5" fill="#6B7280"/>
</svg>
